<?xml version="1.0" standalone="no"?>
<!DOCTYPE svg PUBLIC "-//W3C//DTD SVG 20010904//EN"
 "http://www.w3.org/TR/2001/REC-SVG-20010904/DTD/svg10.dtd">
<svg version="1.0" xmlns="http://www.w3.org/2000/svg"
 width="736.000000pt" height="736.000000pt" viewBox="0 0 736.000000 736.000000"
 preserveAspectRatio="xMidYMid meet">
<metadata>
Created by potrace 1.11, written by Peter Selinger 2001-2013
</metadata>
<g transform="translate(0.000000,736.000000) scale(0.100000,-0.100000)"
fill="#000000" stroke="none">
<path d="M5070 6946 c-28 -66 -100 -252 -100 -259 0 -3 -5 -18 -12 -34 -6 -15
-12 -30 -13 -33 -1 -3 -5 -12 -8 -20 -4 -8 -77 -199 -162 -425 -86 -225 -160
-419 -165 -430 -5 -11 -26 -65 -46 -120 -20 -55 -40 -109 -44 -120 -4 -11 -9
-24 -10 -30 -1 -5 -7 -19 -13 -30 -6 -11 -12 -24 -13 -30 -1 -5 -8 -23 -15
-40 -6 -16 -13 -34 -14 -40 -2 -5 -24 -62 -49 -126 -25 -64 -46 -120 -46 -125
-1 -5 -9 -27 -20 -49 -11 -22 -19 -47 -20 -56 0 -8 -4 -19 -9 -25 -5 -5 -16
-33 -26 -61 -9 -29 -21 -55 -26 -59 -5 -3 -7 -10 -3 -15 3 -5 2 -15 -4 -22 -5
-7 -19 -41 -32 -77 -13 -36 -28 -71 -33 -77 -5 -7 -7 -13 -4 -13 3 0 -1 -17
-10 -37 -30 -73 -36 -88 -39 -98 -9 -30 -79 -211 -84 -215 -3 -3 -7 -14 -8
-25 -2 -11 -13 -38 -23 -59 -10 -22 -19 -46 -19 -53 0 -7 -4 -21 -10 -31 -5
-9 -26 -60 -45 -112 -72 -190 -94 -248 -165 -435 -40 -104 -91 -237 -112 -295
-22 -58 -44 -114 -49 -125 -29 -71 -62 -162 -62 -172 0 -7 -4 -13 -9 -13 -4 0
-8 -6 -8 -14 0 -8 -5 -27 -12 -43 -6 -15 -12 -30 -13 -33 -1 -3 -7 -18 -14
-35 -17 -43 -65 -169 -67 -175 -1 -8 -15 -43 -25 -65 -4 -11 -27 -69 -49 -130
-22 -60 -45 -119 -49 -130 -5 -11 -19 -47 -31 -80 -13 -33 -29 -73 -35 -90 -7
-16 -24 -61 -38 -100 -14 -38 -56 -149 -93 -245 -37 -96 -86 -224 -109 -285
-263 -690 -231 -615 -243 -585 -5 14 -26 66 -45 115 -19 50 -52 133 -72 185
-21 52 -42 106 -48 120 -6 14 -11 27 -12 30 -1 7 -36 96 -100 260 -31 80 -88
226 -127 325 -38 99 -74 189 -79 200 -4 11 -18 45 -29 75 -11 30 -24 64 -29
75 -23 56 -53 131 -55 140 -2 6 -9 24 -15 40 -7 17 -35 86 -61 155 -26 69 -52
136 -58 150 -6 14 -27 68 -47 120 -20 52 -41 104 -45 115 -5 11 -25 62 -44
113 -20 50 -52 134 -72 185 -19 50 -39 101 -44 112 -5 11 -32 81 -61 155 -28
74 -59 154 -70 177 -10 24 -19 47 -19 53 0 6 -4 18 -9 28 -6 9 -38 89 -71 177
-34 88 -66 169 -70 180 -5 11 -30 74 -55 140 -25 66 -54 140 -64 165 -10 25
-30 74 -44 110 -14 36 -41 106 -60 155 -19 50 -47 122 -62 160 -14 39 -31 80
-36 93 -5 12 -13 32 -18 45 -5 12 -21 51 -34 87 -14 36 -51 130 -82 210 -31
80 -79 204 -107 275 -27 72 -54 139 -58 150 -17 40 -45 110 -156 398 -19 50
-39 101 -44 112 -5 11 -41 103 -81 205 -39 102 -85 219 -101 260 -17 41 -31
80 -33 85 -1 6 -10 29 -20 53 l-18 42 -203 0 -202 0 18 -47 c24 -65 50 -132
65 -168 6 -16 22 -57 35 -90 12 -33 47 -120 76 -194 30 -74 54 -138 54 -143 0
-4 9 -27 19 -51 11 -23 68 -166 127 -317 59 -151 149 -382 200 -513 52 -131
94 -243 94 -250 0 -7 4 -17 8 -23 10 -10 65 -149 247 -622 25 -64 50 -126 55
-137 5 -11 36 -92 70 -180 60 -157 70 -182 90 -227 5 -13 41 -106 80 -208 40
-102 78 -199 86 -217 8 -17 14 -33 14 -36 0 -3 5 -18 12 -34 6 -15 12 -30 13
-33 1 -3 7 -18 14 -35 7 -16 39 -100 73 -185 33 -85 66 -168 72 -185 7 -16 23
-57 36 -90 12 -33 35 -91 50 -130 16 -38 76 -194 135 -345 102 -264 113 -292
135 -342 5 -13 26 -66 45 -118 42 -109 83 -216 96 -245 19 -44 120 -301 122
-310 2 -5 31 -82 66 -170 34 -88 81 -207 103 -265 22 -58 46 -118 54 -135 7
-16 34 -84 59 -150 25 -66 62 -161 81 -210 l36 -90 228 -1 c221 0 229 1 239
21 5 11 29 70 51 130 55 145 101 265 111 290 9 22 52 137 54 145 1 3 6 16 12
30 6 14 56 144 111 290 55 146 110 286 121 313 11 26 18 47 14 47 -3 0 -1 6 4
13 5 6 17 32 26 57 9 25 22 59 28 75 7 17 13 35 14 40 2 9 23 61 55 140 13 31
195 509 196 515 0 3 6 19 13 35 9 24 53 139 126 330 5 11 9 25 11 30 1 6 30
80 64 165 34 85 63 162 65 170 2 8 10 31 18 50 15 38 26 67 27 75 1 3 8 22 17
42 30 73 36 88 39 98 2 6 35 93 74 195 39 102 91 237 115 300 24 63 71 187
105 275 34 88 81 212 105 275 24 63 64 167 88 230 24 63 71 187 104 275 34 88
75 196 93 240 18 44 33 85 35 90 1 6 7 23 13 38 7 16 12 30 12 31 0 2 8 21 17
42 9 22 18 48 20 58 2 11 7 24 12 30 5 6 14 29 21 51 7 22 15 45 19 50 3 6 6
15 7 20 2 10 46 125 69 180 7 17 24 64 39 105 15 41 33 89 41 105 7 17 43 109
79 205 36 96 71 189 77 205 7 17 13 32 14 35 1 6 73 195 86 228 5 12 13 32 18
45 10 23 31 88 31 93 0 2 -88 3 -196 3 l-196 -1 -18 -42z"/>
<path d="M6350 2243 c0 -4 -17 -8 -38 -9 -62 -1 -139 -15 -187 -34 -16 -6 -31
-11 -32 -11 -2 1 -4 1 -5 0 -2 0 -10 -2 -18 -4 -74 -14 -249 -125 -338 -214
-85 -84 -92 -93 -142 -170 -50 -79 -130 -261 -114 -261 3 0 0 -9 -5 -19 -34
-63 -34 -344 -1 -471 68 -264 253 -494 491 -612 180 -89 349 -117 558 -92 36
4 68 8 71 9 3 1 25 7 50 13 72 20 190 73 260 117 64 41 163 124 188 157 7 9
18 23 25 30 29 30 87 117 115 173 76 150 106 278 105 450 0 107 -3 127 -24
215 -99 410 -454 706 -866 726 -41 2 -78 6 -83 9 -6 3 -10 3 -10 -2z"/>
</g>
</svg>
